# xmcd CD database file
#
# Track frame offsets:
#	150
#	16731
#	27709
#	37890
#	50796
#	63382
#	73629
#	85238
#	93749
#	105687
#	118334
#	135446
#	154143
#	167274
#	185618
#	199537
#	221134
#	231724
#	244602
#	259518
#	275265
#
# Disc length: 3901 seconds
#
# Revision: 0
# Processed by: cddbd v1.5.2PL0 Copyright (c) Steve Scherf et al.
# Submitted via: CDex 1.51
#
DISCID=2e0f3b15
DTITLE=Johnny Cash - The Legend of Johnny Cash
DYEAR=2011
DGENRE=Country
TTITLE0=Hurt 01
TTITLE1=Cry Cry Cry 02
TTITLE2=Hey Porter 03
TTITLE3=Folsom Prison Blues 04
TTITLE4=I Walk The Line 05
TTITLE5=Get Rhythm 06
TTITLE6=Big River 07
TTITLE7=Guess Things Happen That Way 08
TTITLE8=Ring Of Fire 09
TTITLE9=Jackson 10
TTITLE10=A Boy Named Sue 11
TTITLE11=Sunday Morning Coming Down 12
TTITLE12=Man In Black 13
TTITLE13=One Piece At A Time 14
TTITLE14=Highwayman 15
TTITLE15=The Wanderer (U2 starring Johnny Cash) 16
TTITLE16=Delila´s Gone 17
TTITLE17=Rusty Cage 18
TTITLE18=I´ve Been Everywhere 19
TTITLE19=Give My Love To Rose 20
TTITLE20=The Man Comes Around (early take) 21
EXTD=YEAR: 2011
EXTT0=
EXTT1=
EXTT2=
EXTT3=
EXTT4=
EXTT5=
EXTT6=
EXTT7=
EXTT8=
EXTT9=
EXTT10=
EXTT11=
EXTT12=
EXTT13=
EXTT14=
EXTT15=
EXTT16=
EXTT17=
EXTT18=
EXTT19=
EXTT20=
PLAYORDER=
